<svg xmlns="http://www.w3.org/2000/svg" width="760" height="560" viewBox="0 0 760 560" font-family="sans-serif" font-size="12">
<rect width="760" height="560" fill="white"/>
<line x1="80.0" y1="50" x2="80.0" y2="500" stroke="#ddd" stroke-width="0.5"/>
<text x="80.0" y="518" text-anchor="middle" fill="#444">10<tspan font-size="9" baseline-shift="super">-1</tspan></text>
<line x1="210.0" y1="50" x2="210.0" y2="500" stroke="#ddd" stroke-width="0.5"/>
<text x="210.0" y="518" text-anchor="middle" fill="#444">10<tspan font-size="9" baseline-shift="super">0</tspan></text>
<line x1="340.0" y1="50" x2="340.0" y2="500" stroke="#ddd" stroke-width="0.5"/>
<text x="340.0" y="518" text-anchor="middle" fill="#444">10<tspan font-size="9" baseline-shift="super">1</tspan></text>
<line x1="470.0" y1="50" x2="470.0" y2="500" stroke="#ddd" stroke-width="0.5"/>
<text x="470.0" y="518" text-anchor="middle" fill="#444">10<tspan font-size="9" baseline-shift="super">2</tspan></text>
<line x1="600.0" y1="50" x2="600.0" y2="500" stroke="#ddd" stroke-width="0.5"/>
<text x="600.0" y="518" text-anchor="middle" fill="#444">10<tspan font-size="9" baseline-shift="super">3</tspan></text>
<line x1="730.0" y1="50" x2="730.0" y2="500" stroke="#ddd" stroke-width="0.5"/>
<text x="730.0" y="518" text-anchor="middle" fill="#444">10<tspan font-size="9" baseline-shift="super">4</tspan></text>
<line x1="80" y1="500.0" x2="730" y2="500.0" stroke="#ddd" stroke-width="0.5"/>
<text x="72" y="504.0" text-anchor="end" fill="#444">10<tspan font-size="9" baseline-shift="super">1</tspan></text>
<line x1="80" y1="399.5" x2="730" y2="399.5" stroke="#ddd" stroke-width="0.5"/>
<text x="72" y="403.5" text-anchor="end" fill="#444">10<tspan font-size="9" baseline-shift="super">2</tspan></text>
<line x1="80" y1="299.0" x2="730" y2="299.0" stroke="#ddd" stroke-width="0.5"/>
<text x="72" y="303.0" text-anchor="end" fill="#444">10<tspan font-size="9" baseline-shift="super">3</tspan></text>
<line x1="80" y1="198.5" x2="730" y2="198.5" stroke="#ddd" stroke-width="0.5"/>
<text x="72" y="202.5" text-anchor="end" fill="#444">10<tspan font-size="9" baseline-shift="super">4</tspan></text>
<line x1="80" y1="98.0" x2="730" y2="98.0" stroke="#ddd" stroke-width="0.5"/>
<text x="72" y="102.0" text-anchor="end" fill="#444">10<tspan font-size="9" baseline-shift="super">5</tspan></text>
<line x1="80" y1="500" x2="730" y2="500" stroke="black" stroke-width="1"/>
<line x1="80" y1="50" x2="80" y2="500" stroke="black" stroke-width="1"/>
<text x="405.0" y="545" text-anchor="middle" font-size="13">Arithmetic Intensity (FLOP/byte)</text>
<text transform="rotate(-90 18 275.0)" x="18" y="275.0" text-anchor="middle" font-size="13">Performance (GFLOPS)</text>
<text x="405.0" y="30" text-anchor="middle" font-size="14" font-weight="bold">Roofline — TITAN V (sm_70), conv.cu vs conv_no_db.cu B=16</text>
<line x1="499.5" y1="50" x2="499.5" y2="500" stroke="#888" stroke-dasharray="3,3" stroke-width="0.7"/>
<text x="504.5" y="65" font-size="10" fill="#666">ridge ≈ 169 FLOP/byte</text>
<polyline points="80.0,418.1 81.6,416.8 83.2,415.6 84.9,414.3 86.5,413.1 88.1,411.8 89.8,410.6 91.4,409.3 93.0,408.1 94.6,406.8 96.2,405.5 97.9,404.3 99.5,403.0 101.1,401.8 102.8,400.5 104.4,399.3 106.0,398.0 107.6,396.7 109.3,395.5 110.9,394.2 112.5,393.0 114.1,391.7 115.8,390.5 117.4,389.2 119.0,388.0 120.6,386.7 122.2,385.4 123.9,384.2 125.5,382.9 127.1,381.7 128.8,380.4 130.4,379.2 132.0,377.9 133.6,376.6 135.2,375.4 136.9,374.1 138.5,372.9 140.1,371.6 141.8,370.4 143.4,369.1 145.0,367.9 146.6,366.6 148.2,365.3 149.9,364.1 151.5,362.8 153.1,361.6 154.8,360.3 156.4,359.1 158.0,357.8 159.6,356.5 161.2,355.3 162.9,354.0 164.5,352.8 166.1,351.5 167.8,350.3 169.4,349.0 171.0,347.7 172.6,346.5 174.2,345.2 175.9,344.0 177.5,342.7 179.1,341.5 180.8,340.2 182.4,339.0 184.0,337.7 185.6,336.4 187.2,335.2 188.9,333.9 190.5,332.7 192.1,331.4 193.8,330.2 195.4,328.9 197.0,327.6 198.6,326.4 200.2,325.1 201.9,323.9 203.5,322.6 205.1,321.4 206.8,320.1 208.4,318.9 210.0,317.6 211.6,316.3 213.2,315.1 214.9,313.8 216.5,312.6 218.1,311.3 219.8,310.1 221.4,308.8 223.0,307.5 224.6,306.3 226.2,305.0 227.9,303.8 229.5,302.5 231.1,301.3 232.8,300.0 234.4,298.7 236.0,297.5 237.6,296.2 239.3,295.0 240.9,293.7 242.5,292.5 244.1,291.2 245.8,290.0 247.4,288.7 249.0,287.4 250.6,286.2 252.2,284.9 253.9,283.7 255.5,282.4 257.1,281.2 258.8,279.9 260.4,278.6 262.0,277.4 263.6,276.1 265.2,274.9 266.9,273.6 268.5,272.4 270.1,271.1 271.8,269.9 273.4,268.6 275.0,267.3 276.6,266.1 278.2,264.8 279.9,263.6 281.5,262.3 283.1,261.1 284.8,259.8 286.4,258.5 288.0,257.3 289.6,256.0 291.2,254.8 292.9,253.5 294.5,252.3 296.1,251.0 297.8,249.7 299.4,248.5 301.0,247.2 302.6,246.0 304.2,244.7 305.9,243.5 307.5,242.2 309.1,241.0 310.8,239.7 312.4,238.4 314.0,237.2 315.6,235.9 317.2,234.7 318.9,233.4 320.5,232.2 322.1,230.9 323.8,229.6 325.4,228.4 327.0,227.1 328.6,225.9 330.2,224.6 331.9,223.4 333.5,222.1 335.1,220.9 336.8,219.6 338.4,218.3 340.0,217.1 341.6,215.8 343.3,214.6 344.9,213.3 346.5,212.1 348.1,210.8 349.8,209.5 351.4,208.3 353.0,207.0 354.6,205.8 356.2,204.5 357.9,203.3 359.5,202.0 361.1,200.8 362.7,199.5 364.4,198.2 366.0,197.0 367.6,195.7 369.2,194.5 370.9,193.2 372.5,192.0 374.1,190.7 375.8,189.4 377.4,188.2 379.0,186.9 380.6,185.7 382.2,184.4 383.9,183.2 385.5,181.9 387.1,180.6 388.8,179.4 390.4,178.1 392.0,176.9 393.6,175.6 395.2,174.4 396.9,173.1 398.5,171.9 400.1,170.6 401.8,169.3 403.4,168.1 405.0,166.8 406.6,165.6 408.3,164.3 409.9,163.1 411.5,161.8 413.1,160.5 414.8,159.3 416.4,158.0 418.0,156.8 419.6,155.5 421.2,154.3 422.9,153.0 424.5,151.8 426.1,150.5 427.8,149.2 429.4,148.0 431.0,146.7 432.6,145.5 434.2,144.2 435.9,143.0 437.5,141.7 439.1,140.4 440.8,139.2 442.4,137.9 444.0,136.7 445.6,135.4 447.2,134.2 448.9,132.9 450.5,131.6 452.1,130.4 453.7,129.1 455.4,127.9 457.0,126.6 458.6,125.4 460.2,124.1 461.9,122.9 463.5,121.6 465.1,120.3 466.8,119.1 468.4,117.8 470.0,116.6 471.6,115.3 473.2,114.1 474.9,112.8 476.5,111.5 478.1,110.3 479.8,109.0 481.4,107.8 483.0,106.5 484.6,105.3 486.2,104.0 487.9,102.8 489.5,101.5 491.1,100.2 492.8,99.0 494.4,97.7 496.0,96.5 497.6,95.2 499.2,94.0 500.9,93.8 502.5,93.8 504.1,93.8 505.8,93.8 507.4,93.8 509.0,93.8 510.6,93.8 512.2,93.8 513.9,93.8 515.5,93.8 517.1,93.8 518.8,93.8 520.4,93.8 522.0,93.8 523.6,93.8 525.2,93.8 526.9,93.8 528.5,93.8 530.1,93.8 531.8,93.8 533.4,93.8 535.0,93.8 536.6,93.8 538.2,93.8 539.9,93.8 541.5,93.8 543.1,93.8 544.8,93.8 546.4,93.8 548.0,93.8 549.6,93.8 551.2,93.8 552.9,93.8 554.5,93.8 556.1,93.8 557.8,93.8 559.4,93.8 561.0,93.8 562.6,93.8 564.2,93.8 565.9,93.8 567.5,93.8 569.1,93.8 570.8,93.8 572.4,93.8 574.0,93.8 575.6,93.8 577.2,93.8 578.9,93.8 580.5,93.8 582.1,93.8 583.8,93.8 585.4,93.8 587.0,93.8 588.6,93.8 590.2,93.8 591.9,93.8 593.5,93.8 595.1,93.8 596.8,93.8 598.4,93.8 600.0,93.8 601.6,93.8 603.2,93.8 604.9,93.8 606.5,93.8 608.1,93.8 609.7,93.8 611.4,93.8 613.0,93.8 614.6,93.8 616.2,93.8 617.9,93.8 619.5,93.8 621.1,93.8 622.8,93.8 624.4,93.8 626.0,93.8 627.6,93.8 629.2,93.8 630.9,93.8 632.5,93.8 634.1,93.8 635.8,93.8 637.4,93.8 639.0,93.8 640.6,93.8 642.2,93.8 643.9,93.8 645.5,93.8 647.1,93.8 648.8,93.8 650.4,93.8 652.0,93.8 653.6,93.8 655.3,93.8 656.9,93.8 658.5,93.8 660.1,93.8 661.7,93.8 663.4,93.8 665.0,93.8 666.6,93.8 668.2,93.8 669.9,93.8 671.5,93.8 673.1,93.8 674.8,93.8 676.4,93.8 678.0,93.8 679.6,93.8 681.2,93.8 682.9,93.8 684.5,93.8 686.1,93.8 687.8,93.8 689.4,93.8 691.0,93.8 692.6,93.8 694.2,93.8 695.9,93.8 697.5,93.8 699.1,93.8 700.8,93.8 702.4,93.8 704.0,93.8 705.6,93.8 707.2,93.8 708.9,93.8 710.5,93.8 712.1,93.8 713.8,93.8 715.4,93.8 717.0,93.8 718.6,93.8 720.2,93.8 721.9,93.8 723.5,93.8 725.1,93.8 726.7,93.8 728.4,93.8 730.0,93.8" stroke="black" stroke-width="2" fill="none"/>
<line x1="499.5" y1="93.8" x2="556.1" y2="50.0" stroke="black" stroke-dasharray="4,4" stroke-width="0.8" opacity="0.45"/>
<line x1="80.0" y1="93.8" x2="499.5" y2="93.8" stroke="black" stroke-dasharray="4,4" stroke-width="0.8" opacity="0.45"/>
<text x="639.1" y="85.8" text-anchor="middle" font-size="11" fill="#333">Tensor peak 110 TFLOPS</text>
<text x="170.9" y="339.9" font-size="11" fill="#333" transform="rotate(-30 170.9 347.9)">HBM2 653 GB/s</text>
<circle cx="545.9" cy="93.8" r="6" fill="white" stroke="#1f77b4" stroke-width="1.6"/>
<text x="553.9" y="83.8" font-size="10" fill="#1f77b4">Conv1 theoretical</text>
<circle cx="601.7" cy="93.8" r="6" fill="white" stroke="#ff7f0e" stroke-width="1.6"/>
<text x="609.7" y="83.8" font-size="10" fill="#ff7f0e">Conv2 theoretical</text>
<rect x="459.8" y="221.7" width="12" height="12" fill="#1f77b4" stroke="#1f77b4" stroke-width="1.6"/>
<text x="393.8" y="245.7" font-size="10" fill="#1f77b4">Conv1 db</text>
<rect x="451.6" y="285.9" width="12" height="12" fill="#ff7f0e" stroke="#ff7f0e" stroke-width="1.6"/>
<text x="385.6" y="309.9" font-size="10" fill="#ff7f0e">Conv2 db</text>
<polygon points="471.6,219.3 464.6,231.3 478.6,231.3" fill="#1f77b4" stroke="#1f77b4" stroke-width="1.6"/>
<text x="481.6" y="216.3" font-size="10" fill="#1f77b4">Conv1 no_db</text>
<polygon points="457.7,282.8 450.7,294.8 464.7,294.8" fill="#ff7f0e" stroke="#ff7f0e" stroke-width="1.6"/>
<text x="467.7" y="279.8" font-size="10" fill="#ff7f0e">Conv2 no_db</text>
<rect x="87" y="375" width="240" height="112" fill="white" stroke="#bbb" stroke-width="0.5" opacity="0.92"/>
<circle cx="95.0" cy="390.0" r="6" fill="white" stroke="#444" stroke-width="1.6"/>
<text x="109" y="394" font-size="11" fill="#222">theoretical (on tensor ceiling)</text>
<rect x="89.0" y="400.0" width="12" height="12" fill="#444" stroke="#444" stroke-width="1.6"/>
<text x="109" y="410" font-size="11" fill="#222">conv.cu — double-buffered (db)</text>
<polygon points="95.0,415.0 88.0,427.0 102.0,427.0" fill="#444" stroke="#444" stroke-width="1.6"/>
<text x="109" y="426" font-size="11" fill="#222">conv_no_db.cu — single buffer</text>
<rect x="92" y="439" width="10" height="10" fill="#1f77b4"/>
<text x="107" y="449" font-size="11" fill="#222">Conv1 B=16 (224×224, 64→64)</text>
<rect x="92" y="456" width="10" height="10" fill="#ff7f0e"/>
<text x="107" y="466" font-size="11" fill="#222">Conv2 B=16 (14×14, 512→512)</text>
</svg>